<svg width="352" height="339" viewBox="0 0 352 339" fill="none" xmlns="http://www.w3.org/2000/svg">
<path d="M352 0H0V339H352V0Z" fill="#F7DF1E"/>
<path d="M185.327 184.886C187.069 190.298 189.335 194.276 193.344 194.276C196.712 194.276 198.863 191.074 198.863 186.649C198.863 181.347 196.653 179.469 192.946 176.384L190.914 174.725C185.049 169.971 181.153 164.016 181.153 151.426C181.153 139.829 185.797 131 193.056 131C198.223 131 201.938 134.422 204.615 143.381L198.286 151.113C196.893 146.359 195.39 144.486 193.056 144.486C190.675 144.486 189.166 147.359 189.166 151.113C189.166 155.752 190.677 157.63 194.164 160.503L196.196 162.159C203.101 167.793 207 173.537 207 186.451C207 200.373 201.252 208 193.532 208C185.984 208 181.108 201.156 178.722 192.187L185.327 184.886ZM156.616 186.226C157.893 190.536 159.054 194.18 161.846 194.18C164.517 194.18 166.201 192.192 166.201 184.463V131.883H174.329V184.672C174.329 200.684 169.394 207.971 162.192 207.971C155.685 207.971 151.917 201.564 150 193.847L156.616 186.226Z" fill="black"/>
</svg>
