<svg width="352" height="339" viewBox="0 0 352 339" fill="none" xmlns="http://www.w3.org/2000/svg">
<path d="M317.625 0H34.375C15.3902 0 0 14.8218 0 33.1055V305.895C0 324.178 15.3902 339 34.375 339H317.625C336.61 339 352 324.178 352 305.895V33.1055C352 14.8218 336.61 0 317.625 0Z" fill="#2C2C2C"/>
<path d="M175.5 148.197C191.24 148.197 204 141.164 204 132.487C204 123.811 191.24 116.778 175.5 116.778C159.76 116.778 147 123.811 147 132.487C147 141.164 159.76 148.197 175.5 148.197Z" stroke="#61DAFB" stroke-width="3"/>
<path d="M166.201 140.937C174.071 160.617 184.83 172.92 190.232 168.417C195.634 163.915 193.633 144.312 185.763 124.632C177.893 104.953 167.134 92.65 161.732 97.1525C156.33 101.655 158.331 121.258 166.201 140.937Z" stroke="#61DAFB" stroke-width="3"/>
<path d="M166.076 124.633C158.206 144.312 156.045 163.782 161.25 168.12C166.455 172.458 177.054 160.022 184.924 140.342C192.794 120.663 194.955 101.193 189.75 96.855C184.545 92.5169 173.946 104.953 166.076 124.633Z" stroke="#61DAFB" stroke-width="3"/>
<path d="M175.379 140.593C178.312 140.593 180.69 137.16 180.69 132.925C180.69 128.69 178.312 125.257 175.379 125.257C172.445 125.257 170.067 128.69 170.067 132.925C170.067 137.16 172.445 140.593 175.379 140.593Z" fill="#61DAFB"/>
<path d="M147 204.504V176.318H154.05C155.341 176.318 156.359 176.728 157.104 177.546C157.857 178.351 158.392 179.419 158.71 180.748C159.034 182.076 159.196 183.505 159.196 185.035C159.196 186.096 159.082 187.169 158.853 188.256C158.632 189.343 158.293 190.324 157.835 191.196C157.378 192.069 156.802 192.714 156.108 193.13L159.163 204.504H155.943L153.009 193.834H149.866V204.504H147ZM149.866 188.922H154.094C154.633 188.922 155.057 188.739 155.367 188.377C155.684 188.002 155.909 187.519 156.042 186.928C156.175 186.338 156.241 185.714 156.241 185.056C156.241 184.466 156.178 183.874 156.053 183.284C155.927 182.694 155.71 182.204 155.4 181.814C155.09 181.425 154.655 181.231 154.094 181.231H149.866V188.922ZM166.118 204.987C165.033 204.987 164.096 204.545 163.307 203.659C162.524 202.773 161.92 201.525 161.492 199.914C161.071 198.289 160.86 196.385 160.86 194.196C160.86 191.982 161.075 190.068 161.502 188.458C161.938 186.847 162.547 185.613 163.329 184.753C164.118 183.881 165.048 183.445 166.118 183.445C167.033 183.445 167.863 183.794 168.608 184.492C169.354 185.191 169.947 186.264 170.39 187.714C170.833 189.149 171.054 190.982 171.054 193.209C171.054 193.559 171.047 193.988 171.032 194.497C171.024 194.995 171.006 195.499 170.976 196.008H163.595C163.624 196.948 163.742 197.773 163.949 198.484C164.162 199.182 164.454 199.727 164.823 200.115C165.192 200.504 165.627 200.698 166.129 200.698C166.668 200.698 167.136 200.537 167.535 200.215C167.933 199.881 168.309 199.35 168.664 198.626L170.257 201.624C169.77 202.631 169.183 203.443 168.497 204.061C167.811 204.679 167.018 204.987 166.118 204.987ZM163.605 192.082H168.376C168.339 191.183 168.229 190.411 168.044 189.767C167.859 189.109 167.601 188.606 167.269 188.256C166.937 187.908 166.535 187.733 166.062 187.733C165.414 187.733 164.86 188.095 164.402 188.82C163.945 189.545 163.679 190.632 163.605 192.082ZM177.014 204.987C175.782 204.987 174.805 204.383 174.081 203.176C173.366 201.954 173.008 200.303 173.008 198.223C173.008 196.88 173.193 195.705 173.561 194.699C173.938 193.68 174.457 192.894 175.121 192.344C175.793 191.78 176.575 191.499 177.468 191.499C177.962 191.499 178.439 191.586 178.896 191.759C179.361 191.92 179.767 192.157 180.113 192.465V191.176C180.113 190.023 179.932 189.156 179.57 188.578C179.216 187.988 178.693 187.693 177.999 187.693C177.445 187.693 176.878 187.875 176.294 188.237C175.712 188.599 175.121 189.137 174.524 189.848L173.694 185.881C174.344 185.103 175.066 184.506 175.863 184.09C176.66 183.661 177.465 183.445 178.276 183.445C179.796 183.445 180.932 184.104 181.685 185.418C182.437 186.721 182.814 188.666 182.814 191.257V204.504H180.113V202.853C179.729 203.552 179.272 204.081 178.741 204.443C178.217 204.807 177.642 204.987 177.014 204.987ZM177.656 200.739C178.113 200.739 178.552 200.578 178.973 200.255C179.401 199.921 179.781 199.45 180.113 198.846V196.411C179.796 196.129 179.442 195.914 179.051 195.767C178.667 195.606 178.284 195.525 177.9 195.525C177.214 195.525 176.671 195.767 176.272 196.25C175.882 196.719 175.686 197.377 175.686 198.223C175.686 199.014 175.859 199.632 176.206 200.075C176.553 200.518 177.036 200.739 177.656 200.739ZM190.583 204.987C189.543 204.987 188.643 204.552 187.883 203.678C187.123 202.806 186.536 201.572 186.123 199.974C185.711 198.363 185.504 196.451 185.504 194.237C185.504 192.022 185.711 190.108 186.123 188.498C186.544 186.887 187.138 185.646 187.905 184.774C188.673 183.888 189.577 183.445 190.617 183.445C191.79 183.445 192.764 183.943 193.539 184.935C194.321 185.916 194.885 187.37 195.232 189.303L192.609 190.914C192.432 190.056 192.174 189.398 191.834 188.941C191.495 188.472 191.104 188.237 190.661 188.237C189.945 188.237 189.373 188.775 188.945 189.848C188.525 190.921 188.315 192.384 188.315 194.237C188.315 196.063 188.522 197.512 188.935 198.585C189.347 199.658 189.905 200.196 190.605 200.196C191.1 200.196 191.521 199.94 191.867 199.431C192.221 198.921 192.484 198.176 192.653 197.195L195.265 198.626C194.933 200.733 194.368 202.323 193.571 203.396C192.782 204.457 191.786 204.987 190.583 204.987ZM201.267 204.987C200.367 204.987 199.691 204.538 199.241 203.638C198.792 202.74 198.566 201.397 198.566 199.611V188.337H196.917V183.929H198.566V177.828L201.311 175.433V183.929H203.879V188.337H201.311V198.706C201.311 199.35 201.381 199.826 201.521 200.135C201.669 200.444 201.897 200.599 202.207 200.599C202.754 200.599 203.351 200.29 204 199.672L203.68 204.061C203.34 204.369 202.971 204.599 202.573 204.746C202.174 204.907 201.739 204.987 201.267 204.987Z" fill="#61DAFB"/>
</svg>
