<svg width="352" height="339" viewBox="0 0 352 339" fill="none" xmlns="http://www.w3.org/2000/svg">
<g clip-path="url(#clip0_11_2)">
<path d="M317.625 0H34.375C15.3902 0 0 14.8218 0 33.1055V305.895C0 324.178 15.3902 339 34.375 339H317.625C336.61 339 352 324.178 352 305.895V33.1055C352 14.8218 336.61 0 317.625 0Z" fill="#2C2C2C"/>
<path d="M175.5 148.197C191.24 148.197 204 141.164 204 132.487C204 123.811 191.24 116.778 175.5 116.778C159.76 116.778 147 123.811 147 132.487C147 141.164 159.76 148.197 175.5 148.197Z" stroke="#61DAFB" stroke-width="3"/>
<path d="M166.201 140.937C174.071 160.617 184.83 172.92 190.232 168.417C195.634 163.915 193.633 144.312 185.763 124.632C177.893 104.953 167.134 92.65 161.732 97.1525C156.33 101.655 158.331 121.258 166.201 140.937Z" stroke="#61DAFB" stroke-width="3"/>
<path d="M166.076 124.633C158.206 144.312 156.045 163.782 161.25 168.12C166.455 172.458 177.054 160.022 184.924 140.342C192.794 120.663 194.955 101.193 189.75 96.855C184.545 92.5169 173.946 104.953 166.076 124.633Z" stroke="#61DAFB" stroke-width="3"/>
<path d="M175.379 140.593C178.312 140.593 180.69 137.16 180.69 132.925C180.69 128.69 178.312 125.257 175.379 125.257C172.445 125.257 170.067 128.69 170.067 132.925C170.067 137.16 172.445 140.593 175.379 140.593Z" fill="#61DAFB"/>
<path d="M147 204.504V176.318H154.05C155.341 176.318 156.359 176.728 157.104 177.546C157.857 178.351 158.392 179.419 158.71 180.748C159.034 182.076 159.196 183.505 159.196 185.035C159.196 186.096 159.082 187.169 158.853 188.256C158.632 189.343 158.293 190.324 157.835 191.196C157.378 192.069 156.802 192.714 156.108 193.13L159.163 204.504H155.943L153.009 193.834H149.866V204.504H147ZM149.866 188.922H154.094C154.633 188.922 155.057 188.739 155.367 188.377C155.684 188.002 155.909 187.519 156.042 186.928C156.175 186.338 156.241 185.714 156.241 185.056C156.241 184.466 156.178 183.874 156.053 183.284C155.927 182.694 155.71 182.204 155.4 181.814C155.09 181.425 154.655 181.231 154.094 181.231H149.866V188.922ZM166.118 204.987C165.033 204.987 164.096 204.545 163.307 203.659C162.524 202.773 161.92 201.525 161.492 199.914C161.071 198.289 160.86 196.385 160.86 194.196C160.86 191.982 161.075 190.068 161.502 188.458C161.938 186.847 162.547 185.613 163.329 184.753C164.118 183.881 165.048 183.445 166.118 183.445C167.033 183.445 167.863 183.794 168.608 184.492C169.354 185.191 169.947 186.264 170.39 187.714C170.833 189.149 171.054 190.982 171.054 193.209C171.054 193.559 171.047 193.988 171.032 194.497C171.024 194.995 171.006 195.499 170.976 196.008H163.595C163.624 196.948 163.742 197.773 163.949 198.484C164.162 199.182 164.454 199.727 164.823 200.115C165.192 200.504 165.627 200.698 166.129 200.698C166.668 200.698 167.136 200.537 167.535 200.215C167.933 199.881 168.309 199.35 168.664 198.626L170.257 201.624C169.77 202.631 169.183 203.443 168.497 204.061C167.811 204.679 167.018 204.987 166.118 204.987ZM163.605 192.082H168.376C168.339 191.183 168.229 190.411 168.044 189.767C167.859 189.109 167.601 188.606 167.269 188.256C166.937 187.908 166.535 187.733 166.062 187.733C165.414 187.733 164.86 188.095 164.402 188.82C163.945 189.545 163.679 190.632 163.605 192.082ZM177.014 204.987C175.782 204.987 174.805 204.383 174.081 203.176C173.366 201.954 173.008 200.303 173.008 198.223C173.008 196.88 173.193 195.705 173.561 194.699C173.938 193.68 174.457 192.894 175.121 192.344C175.793 191.78 176.575 191.499 177.468 191.499C177.962 191.499 178.439 191.586 178.896 191.759C179.361 191.92 179.767 192.157 180.113 192.465V191.176C180.113 190.023 179.932 189.156 179.57 188.578C179.216 187.988 178.693 187.693 177.999 187.693C177.445 187.693 176.878 187.875 176.294 188.237C175.712 188.599 175.121 189.137 174.524 189.848L173.694 185.881C174.344 185.103 175.066 184.506 175.863 184.09C176.66 183.661 177.465 183.445 178.276 183.445C179.796 183.445 180.932 184.104 181.685 185.418C182.437 186.721 182.814 188.666 182.814 191.257V204.504H180.113V202.853C179.729 203.552 179.272 204.081 178.741 204.443C178.217 204.807 177.642 204.987 177.014 204.987ZM177.656 200.739C178.113 200.739 178.552 200.578 178.973 200.255C179.401 199.921 179.781 199.45 180.113 198.846V196.411C179.796 196.129 179.442 195.914 179.051 195.767C178.667 195.606 178.284 195.525 177.9 195.525C177.214 195.525 176.671 195.767 176.272 196.25C175.882 196.719 175.686 197.377 175.686 198.223C175.686 199.014 175.859 199.632 176.206 200.075C176.553 200.518 177.036 200.739 177.656 200.739ZM190.583 204.987C189.543 204.987 188.643 204.552 187.883 203.678C187.123 202.806 186.536 201.572 186.123 199.974C185.711 198.363 185.504 196.451 185.504 194.237C185.504 192.022 185.711 190.108 186.123 188.498C186.544 186.887 187.138 185.646 187.905 184.774C188.673 183.888 189.577 183.445 190.617 183.445C191.79 183.445 192.764 183.943 193.539 184.935C194.321 185.916 194.885 187.37 195.232 189.303L192.609 190.914C192.432 190.056 192.174 189.398 191.834 188.941C191.495 188.472 191.104 188.237 190.661 188.237C189.945 188.237 189.373 188.775 188.945 189.848C188.525 190.921 188.315 192.384 188.315 194.237C188.315 196.063 188.522 197.512 188.935 198.585C189.347 199.658 189.905 200.196 190.605 200.196C191.1 200.196 191.521 199.94 191.867 199.431C192.221 198.921 192.484 198.176 192.653 197.195L195.265 198.626C194.933 200.733 194.368 202.323 193.571 203.396C192.782 204.457 191.786 204.987 190.583 204.987ZM201.267 204.987C200.367 204.987 199.691 204.538 199.241 203.638C198.792 202.74 198.566 201.397 198.566 199.611V188.337H196.917V183.929H198.566V177.828L201.311 175.433V183.929H203.879V188.337H201.311V198.706C201.311 199.35 201.381 199.826 201.521 200.135C201.669 200.444 201.897 200.599 202.207 200.599C202.754 200.599 203.351 200.29 204 199.672L203.68 204.061C203.34 204.369 202.971 204.599 202.573 204.746C202.174 204.907 201.739 204.987 201.267 204.987Z" fill="#61DAFB"/>
<path d="M351.5 149.197C367.24 149.197 380 142.164 380 133.487C380 124.811 367.24 117.778 351.5 117.778C335.76 117.778 323 124.811 323 133.487C323 142.164 335.76 149.197 351.5 149.197Z" stroke="#61DAFB" stroke-width="3"/>
<path d="M342.201 141.937C350.071 161.617 360.83 173.92 366.232 169.417C371.634 164.915 369.633 145.312 361.763 125.632C353.893 105.953 343.134 93.65 337.732 98.1525C332.33 102.655 334.331 122.258 342.201 141.937Z" stroke="#61DAFB" stroke-width="3"/>
<path d="M342.076 125.633C334.206 145.312 332.045 164.782 337.25 169.12C342.455 173.458 353.054 161.022 360.924 141.342C368.794 121.663 370.955 102.193 365.75 97.855C360.545 93.5169 349.946 105.953 342.076 125.633Z" stroke="#61DAFB" stroke-width="3"/>
<path d="M351.379 141.593C354.312 141.593 356.69 138.16 356.69 133.925C356.69 129.69 354.312 126.257 351.379 126.257C348.445 126.257 346.067 129.69 346.067 133.925C346.067 138.16 348.445 141.593 351.379 141.593Z" fill="#61DAFB"/>
<path d="M323 205.504V177.318H330.05C331.341 177.318 332.359 177.728 333.104 178.546C333.857 179.351 334.392 180.419 334.71 181.748C335.034 183.076 335.196 184.505 335.196 186.035C335.196 187.096 335.082 188.169 334.853 189.256C334.632 190.343 334.293 191.324 333.835 192.196C333.378 193.069 332.802 193.714 332.108 194.13L335.163 205.504H331.943L329.009 194.834H325.866V205.504H323ZM325.866 189.922H330.094C330.633 189.922 331.057 189.739 331.367 189.377C331.684 189.002 331.909 188.519 332.042 187.928C332.175 187.338 332.241 186.714 332.241 186.056C332.241 185.466 332.178 184.874 332.053 184.284C331.927 183.694 331.71 183.204 331.4 182.814C331.09 182.425 330.655 182.231 330.094 182.231H325.866V189.922ZM342.118 205.987C341.033 205.987 340.096 205.545 339.307 204.659C338.524 203.773 337.92 202.525 337.492 200.914C337.071 199.289 336.86 197.385 336.86 195.196C336.86 192.982 337.075 191.068 337.502 189.458C337.938 187.847 338.547 186.613 339.329 185.753C340.118 184.881 341.048 184.445 342.118 184.445C343.033 184.445 343.863 184.794 344.608 185.492C345.354 186.191 345.947 187.264 346.39 188.714C346.833 190.149 347.054 191.982 347.054 194.209C347.054 194.559 347.047 194.988 347.032 195.497C347.024 195.995 347.006 196.499 346.976 197.008H339.595C339.624 197.948 339.742 198.773 339.949 199.484C340.162 200.182 340.454 200.727 340.823 201.115C341.192 201.504 341.627 201.698 342.129 201.698C342.668 201.698 343.136 201.537 343.535 201.215C343.933 200.881 344.309 200.35 344.664 199.626L346.257 202.624C345.77 203.631 345.183 204.443 344.497 205.061C343.811 205.679 343.018 205.987 342.118 205.987ZM339.605 193.082H344.376C344.339 192.183 344.229 191.411 344.044 190.767C343.859 190.109 343.601 189.606 343.269 189.256C342.937 188.908 342.535 188.733 342.062 188.733C341.414 188.733 340.86 189.095 340.402 189.82C339.945 190.545 339.679 191.632 339.605 193.082ZM353.014 205.987C351.782 205.987 350.805 205.383 350.081 204.176C349.366 202.954 349.008 201.303 349.008 199.223C349.008 197.88 349.193 196.705 349.561 195.699C349.938 194.68 350.457 193.894 351.121 193.344C351.793 192.78 352.575 192.499 353.468 192.499C353.962 192.499 354.439 192.586 354.896 192.759C355.361 192.92 355.767 193.157 356.113 193.465V192.176C356.113 191.023 355.932 190.156 355.57 189.578C355.216 188.988 354.693 188.693 353.999 188.693C353.445 188.693 352.878 188.875 352.294 189.237C351.712 189.599 351.121 190.137 350.524 190.848L349.694 186.881C350.344 186.103 351.066 185.506 351.863 185.09C352.66 184.661 353.465 184.445 354.276 184.445C355.796 184.445 356.932 185.104 357.685 186.418C358.437 187.721 358.814 189.666 358.814 192.257V205.504H356.113V203.853C355.729 204.552 355.272 205.081 354.741 205.443C354.217 205.807 353.642 205.987 353.014 205.987ZM353.656 201.739C354.113 201.739 354.552 201.578 354.973 201.255C355.401 200.921 355.781 200.45 356.113 199.846V197.411C355.796 197.129 355.442 196.914 355.051 196.767C354.667 196.606 354.284 196.525 353.9 196.525C353.214 196.525 352.671 196.767 352.272 197.25C351.882 197.719 351.686 198.377 351.686 199.223C351.686 200.014 351.859 200.632 352.206 201.075C352.553 201.518 353.036 201.739 353.656 201.739ZM366.583 205.987C365.543 205.987 364.643 205.552 363.883 204.678C363.123 203.806 362.536 202.572 362.123 200.974C361.711 199.363 361.504 197.451 361.504 195.237C361.504 193.022 361.711 191.108 362.123 189.498C362.544 187.887 363.138 186.646 363.905 185.774C364.673 184.888 365.577 184.445 366.617 184.445C367.79 184.445 368.764 184.943 369.539 185.935C370.321 186.916 370.885 188.37 371.232 190.303L368.609 191.914C368.432 191.056 368.174 190.398 367.834 189.941C367.495 189.472 367.104 189.237 366.661 189.237C365.945 189.237 365.373 189.775 364.945 190.848C364.525 191.921 364.315 193.384 364.315 195.237C364.315 197.063 364.522 198.512 364.935 199.585C365.347 200.658 365.905 201.196 366.605 201.196C367.1 201.196 367.521 200.94 367.867 200.431C368.221 199.921 368.484 199.176 368.653 198.195L371.265 199.626C370.933 201.733 370.368 203.323 369.571 204.396C368.782 205.457 367.786 205.987 366.583 205.987ZM377.267 205.987C376.367 205.987 375.691 205.538 375.241 204.638C374.792 203.74 374.566 202.397 374.566 200.611V189.337H372.917V184.929H374.566V178.828L377.311 176.433V184.929H379.879V189.337H377.311V199.706C377.311 200.35 377.381 200.826 377.521 201.135C377.669 201.444 377.897 201.599 378.207 201.599C378.754 201.599 379.351 201.29 380 200.672L379.68 205.061C379.34 205.369 378.971 205.599 378.573 205.746C378.174 205.907 377.739 205.987 377.267 205.987Z" fill="#61DAFB"/>
<path d="M-0.5 148.197C15.2401 148.197 28 141.164 28 132.487C28 123.811 15.2401 116.778 -0.5 116.778C-16.2401 116.778 -29 123.811 -29 132.487C-29 141.164 -16.2401 148.197 -0.5 148.197Z" stroke="#61DAFB" stroke-width="3"/>
<path d="M-9.79868 140.937C-1.92863 160.617 8.83042 172.92 14.2323 168.417C19.6342 163.915 17.6334 144.312 9.76331 124.632C1.89325 104.953 -8.86579 92.65 -14.2677 97.1525C-19.6696 101.655 -17.6687 121.258 -9.79868 140.937Z" stroke="#61DAFB" stroke-width="3"/>
<path d="M-9.92385 124.633C-17.7939 144.312 -19.9546 163.782 -14.7499 168.12C-9.54522 172.458 1.05395 160.022 8.92401 140.342C16.7941 120.663 18.9548 101.193 13.7501 96.855C8.54539 92.5169 -2.05379 104.953 -9.92385 124.633Z" stroke="#61DAFB" stroke-width="3"/>
<path d="M-0.621192 140.593C2.31219 140.593 4.69017 137.16 4.69017 132.925C4.69017 128.69 2.31219 125.257 -0.621192 125.257C-3.55458 125.257 -5.93256 128.69 -5.93256 132.925C-5.93256 137.16 -3.55458 140.593 -0.621192 140.593Z" fill="#61DAFB"/>
<path d="M-29 204.504V176.318H-21.9504C-20.6589 176.318 -19.6407 176.728 -18.8958 177.546C-18.1432 178.351 -17.6081 179.419 -17.2905 180.748C-16.9662 182.076 -16.8035 183.505 -16.8035 185.035C-16.8035 186.096 -16.918 187.169 -17.1471 188.256C-17.3684 189.343 -17.7072 190.324 -18.1653 191.196C-18.6224 192.069 -19.198 192.714 -19.8919 193.13L-16.8372 204.504H-20.0574L-22.9908 193.834H-26.134V204.504H-29ZM-26.134 188.922H-21.9062C-21.3672 188.922 -20.9428 188.739 -20.6329 188.377C-20.3163 188.002 -20.0911 187.519 -19.9583 186.928C-19.8254 186.338 -19.759 185.714 -19.759 185.056C-19.759 184.466 -19.8216 183.874 -19.9467 183.284C-20.0728 182.694 -20.2903 182.204 -20.6002 181.814C-20.9101 181.425 -21.3451 181.231 -21.9062 181.231H-26.134V188.922ZM-9.88194 204.987C-10.9666 204.987 -11.9039 204.545 -12.6931 203.659C-13.4755 202.773 -14.0799 201.525 -14.5082 199.914C-14.9288 198.289 -15.1395 196.385 -15.1395 194.196C-15.1395 191.982 -14.9249 190.068 -14.4976 188.458C-14.0616 186.847 -13.4534 185.613 -12.671 184.753C-11.8818 183.881 -10.9521 183.445 -9.88194 183.445C-8.9667 183.445 -8.13711 183.794 -7.39221 184.492C-6.64635 185.191 -6.05256 186.264 -5.60986 187.714C-5.16715 189.149 -4.9458 190.982 -4.9458 193.209C-4.9458 193.559 -4.95349 193.988 -4.96793 194.497C-4.97563 194.995 -4.99391 195.499 -5.02375 196.008H-12.4053C-12.3755 196.948 -12.2581 197.773 -12.0512 198.484C-11.8375 199.182 -11.5459 199.727 -11.1773 200.115C-10.8078 200.504 -10.3728 200.698 -9.87135 200.698C-9.33241 200.698 -8.86372 200.537 -8.46529 200.215C-8.06686 199.881 -7.69056 199.35 -7.33639 198.626L-5.74267 201.624C-6.22964 202.631 -6.8167 203.443 -7.50289 204.061C-8.18908 204.679 -8.9821 204.987 -9.88194 204.987ZM-12.3948 192.082H-7.62416C-7.66073 191.183 -7.77139 190.411 -7.95618 189.767C-8.14096 189.109 -8.39889 188.606 -8.73091 188.256C-9.06294 187.908 -9.46522 187.733 -9.93776 187.733C-10.5864 187.733 -11.1398 188.095 -11.5979 188.82C-12.055 189.545 -12.3207 190.632 -12.3948 192.082ZM1.01434 204.987C-0.217527 204.987 -1.19533 204.383 -1.91905 203.176C-2.63411 201.954 -2.99213 200.303 -2.99213 198.223C-2.99213 196.88 -2.80735 195.705 -2.43876 194.699C-2.06246 193.68 -1.54276 192.894 -0.878705 192.344C-0.206951 191.78 0.575483 191.499 1.46763 191.499C1.9623 191.499 2.43868 191.586 2.89582 191.759C3.36066 191.92 3.76681 192.157 4.11327 192.465V191.176C4.11327 190.023 3.93233 189.156 3.57047 188.578C3.2163 187.988 2.69276 187.693 1.99887 187.693C1.44549 187.693 0.877682 187.875 0.294468 188.237C-0.287783 188.599 -0.878707 189.137 -1.47636 189.848L-2.30594 185.881C-1.65632 185.103 -0.933551 184.506 -0.136685 184.09C0.660182 183.661 1.46474 183.445 2.27604 183.445C3.79567 183.445 4.93227 184.104 5.68486 185.418C6.43746 186.721 6.81376 188.666 6.81376 191.257V204.504H4.11327V202.853C3.72927 203.552 3.27212 204.081 2.74088 204.443C2.21733 204.807 1.64183 204.987 1.01434 204.987ZM1.65626 200.739C2.1134 200.739 2.55225 200.578 2.97281 200.255C3.40108 199.921 3.78124 199.45 4.11327 198.846V196.411C3.79568 196.129 3.44151 195.914 3.05078 195.767C2.66678 195.606 2.28375 195.525 1.89975 195.525C1.21356 195.525 0.670756 195.767 0.272323 196.25C-0.118411 196.719 -0.313772 197.377 -0.313772 198.223C-0.313772 199.014 -0.140546 199.632 0.205917 200.075C0.553343 200.518 1.03647 200.739 1.65626 200.739ZM14.5832 204.987C13.5429 204.987 12.643 204.552 11.8827 203.678C11.1234 202.806 10.5363 201.572 10.1234 199.974C9.71058 198.363 9.50366 196.451 9.50366 194.237C9.50366 192.022 9.71058 190.108 10.1234 188.498C10.544 186.887 11.1378 185.646 11.9048 184.774C12.6728 183.888 13.5765 183.445 14.6169 183.445C15.79 183.445 16.764 183.943 17.5387 184.935C18.3212 185.916 18.8851 187.37 19.2316 189.303L16.609 190.914C16.432 190.056 16.174 189.398 15.8343 188.941C15.4946 188.472 15.1039 188.237 14.6612 188.237C13.9451 188.237 13.3735 188.775 12.9452 189.848C12.5246 190.921 12.3148 192.384 12.3148 194.237C12.3148 196.063 12.5217 197.512 12.9346 198.585C13.3475 199.658 13.9047 200.196 14.6053 200.196C15.1 200.196 15.5206 199.94 15.867 199.431C16.2212 198.921 16.4839 198.176 16.6533 197.195L19.2653 198.626C18.9332 200.733 18.3683 202.323 17.5714 203.396C16.7823 204.457 15.7862 204.987 14.5832 204.987ZM25.2668 204.987C24.3669 204.987 23.6913 204.538 23.2409 203.638C22.7915 202.74 22.5663 201.397 22.5663 199.611V188.337H20.9167V183.929H22.5663V177.828L25.3111 175.433V183.929H27.8787V188.337H25.3111V198.706C25.3111 199.35 25.3813 199.826 25.5209 200.135C25.6691 200.444 25.8972 200.599 26.207 200.599C26.7537 200.599 27.3513 200.29 28 199.672L27.6795 204.061C27.3398 204.369 26.9712 204.599 26.5728 204.746C26.1743 204.907 25.7393 204.987 25.2668 204.987Z" fill="#61DAFB"/>
</g>
<defs>
<clipPath id="clip0_11_2">
<rect width="352" height="339" fill="white"/>
</clipPath>
</defs>
</svg>
