<svg width="352" height="339" viewBox="0 0 352 339" fill="none" xmlns="http://www.w3.org/2000/svg">
<path d="M317.625 0H34.375C15.3902 0 0 14.8218 0 33.1055V305.895C0 324.178 15.3902 339 34.375 339H317.625C336.61 339 352 324.178 352 305.895V33.1055C352 14.8218 336.61 0 317.625 0Z" fill="#3178C6"/>
<path fill-rule="evenodd" clip-rule="evenodd" d="M179.307 187.262V203.852C180.622 205.246 182.229 206.275 184.015 206.971C185.801 207.668 187.749 208 189.697 208C191.645 208 193.431 207.635 195.217 206.872C197.003 206.109 198.464 204.848 199.763 203.222C201.078 201.463 202.198 199.24 202.847 196.254C203.497 193.268 204 189.949 204 185.636C204 182.616 203.773 179.995 203.334 177.673C202.896 175.35 202.263 173.359 201.386 171.7C200.558 169.941 199.6 168.382 198.464 167.055C197.328 165.727 196.029 164.334 194.568 163.073C193.496 162.177 192.619 161.314 191.645 160.452C190.801 159.589 190.071 158.726 189.535 157.863C188.934 156.968 188.48 156.038 188.155 155.076C187.83 154.081 187.668 152.986 187.668 151.758C187.668 150.63 187.812 149.601 188.106 148.672C188.4 147.743 188.804 146.98 189.324 146.316C189.843 145.653 190.493 145.155 191.272 144.79C192.035 144.425 192.879 144.259 193.87 144.259C194.551 144.259 195.266 144.362 195.98 144.571C196.727 144.78 197.49 145.102 198.253 145.533C199.016 145.965 199.763 146.496 200.526 147.159C201.24 147.823 201.906 148.586 202.474 149.449V133.854C201.24 132.891 199.876 132.161 198.415 131.697C196.954 131.232 195.331 131 193.383 131C191.434 131 189.649 131.431 187.863 132.261C186.077 133.09 184.616 134.418 183.317 136.243C182.002 138.034 181.044 140.224 180.232 143.211C179.469 145.998 179.096 149.183 179.096 153.165C179.096 158.142 179.794 162.456 181.206 165.774C182.603 169.424 184.778 172.078 187.538 174.733C188.658 175.662 189.649 176.591 190.623 177.487C191.597 178.383 192.408 179.312 193.058 180.274C193.756 181.236 194.308 182.298 194.681 183.426C195.087 184.554 195.298 185.881 195.298 187.408C195.298 188.47 195.172 189.465 194.925 190.394C194.678 191.323 194.292 192.12 193.772 192.783C193.253 193.447 192.619 193.978 191.824 194.376C191.061 194.741 190.201 194.94 189.064 194.94C187.278 194.94 185.492 194.309 183.869 193.049C182.083 191.788 180.46 189.896 178.999 187.408L179.307 187.262ZM165.67 146.449H176.06V132.845H147V146.449H157.39V207.17H165.67V146.449Z" fill="white"/>
</svg>
